<svg width="48" height="48" viewBox="0 0 48 66" fill="none" xmlns="http://www.w3.org/2000/svg">
<path d="M6 6V26.4C6 29.7603 6 31.4405 6.65396 32.7239C7.2292 33.8529 8.14708 34.7708 9.27606 35.346C10.5595 36 12.2397 36 15.6 36H30M30 36C30 39.3137 32.6863 42 36 42C39.3137 42 42 39.3137 42 36C42 32.6863 39.3137 30 36 30C32.6863 30 30 32.6863 30 36ZM6 16L30 16M30 16C30 19.3137 32.6863 22 36 22C39.3137 22 42 19.3137 42 16C42 12.6863 39.3137 10 36 10C32.6863 10 30 12.6863 30 16Z" stroke="white" stroke-width="4" stroke-linecap="round" stroke-linejoin="round"/>
</svg>
