<svg width="48" height="66" viewBox="0 0 48 66" fill="none" xmlns="http://www.w3.org/2000/svg">
<path d="M22.1 42L14.35 31.15C13.8833 30.4833 13.8253 29.792 14.176 29.076C14.5267 28.36 15.118 28.0013 15.95 28C16.2833 28 16.6 28.0753 16.9 28.226C17.2 28.3767 17.4333 28.5847 17.6 28.85L27 42L17.6 55.15C17.4333 55.4167 17.2 55.6253 16.9 55.776C16.6 55.9267 16.2833 56.0013 15.95 56C15.15 56 14.5667 55.642 14.2 54.926C13.8333 54.21 13.8833 53.518 14.35 52.85L22.1 42ZM34 42L26.25 31.15C25.7833 30.4833 25.7247 29.792 26.074 29.076C26.4233 28.36 27.016 28.0013 27.852 28C28.1853 28 28.502 28.0753 28.802 28.226C29.102 28.3767 29.3353 28.5847 29.502 28.85L38.9 42L29.5 55.15C29.3333 55.4167 29.1 55.6253 28.8 55.776C28.5 55.9267 28.1833 56.0013 27.85 56C27.05 56 26.4667 55.642 26.1 54.926C25.7333 54.21 25.7833 53.518 26.25 52.85L34 42Z" fill="white"/>
<path d="M22.1 24L14.35 13.15C13.8833 12.4833 13.8253 11.792 14.176 11.076C14.5267 10.36 15.118 10.0013 15.95 10C16.2833 10 16.6 10.0753 16.9 10.226C17.2 10.3767 17.4333 10.5847 17.6 10.85L27 24L17.6 37.15C17.4333 37.4167 17.2 37.6253 16.9 37.776C16.6 37.9267 16.2833 38.0013 15.95 38C15.15 38 14.5667 37.642 14.2 36.926C13.8333 36.21 13.8833 35.518 14.35 34.85L22.1 24ZM34 24L26.25 13.15C25.7833 12.4833 25.7247 11.792 26.074 11.076C26.4233 10.36 27.016 10.0013 27.852 10C28.1853 10 28.502 10.0753 28.802 10.226C29.102 10.3767 29.3353 10.5847 29.502 10.85L38.9 24L29.5 37.15C29.3333 37.4167 29.1 37.6253 28.8 37.776C28.5 37.9267 28.1833 38.0013 27.85 38C27.05 38 26.4667 37.642 26.1 36.926C25.7333 36.21 25.7833 35.518 26.25 34.85L34 24Z" fill="white"/>
</svg>
