<svg width="48" height="66" viewBox="0 0 48 66" fill="none" xmlns="http://www.w3.org/2000/svg">
<path d="M10 26C10 24.9391 10.4214 23.9217 11.1716 23.1716C11.9217 22.4214 12.9391 22 14 22H34C35.0609 22 36.0783 22.4214 36.8284 23.1716C37.5786 23.9217 38 24.9391 38 26V38C38 39.0609 37.5786 40.0783 36.8284 40.8284C36.0783 41.5786 35.0609 42 34 42H14C12.9391 42 11.9217 41.5786 11.1716 40.8284C10.4214 40.0783 10 39.0609 10 38V26Z" stroke="white" stroke-width="4" stroke-linecap="round" stroke-linejoin="round"/>
<path d="M16 22V14C16 11.8783 16.8429 9.84344 18.3431 8.34315C19.8434 6.84285 21.8783 6 24 6C26.1217 6 28.1566 6.84285 29.6569 8.34315C31.1571 9.84344 32 11.8783 32 14V22M22 32C22 32.5304 22.2107 33.0391 22.5858 33.4142C22.9609 33.7893 23.4696 34 24 34C24.5304 34 25.0391 33.7893 25.4142 33.4142C25.7893 33.0391 26 32.5304 26 32C26 31.4696 25.7893 30.9609 25.4142 30.5858C25.0391 30.2107 24.5304 30 24 30C23.4696 30 22.9609 30.2107 22.5858 30.5858C22.2107 30.9609 22 31.4696 22 32Z" stroke="white" stroke-width="4" stroke-linecap="round" stroke-linejoin="round"/>
<path d="M17 43C17 42.4696 17.2107 41.9609 17.5858 41.5858C17.9609 41.2107 18.4696 41 19 41H29C29.5304 41 30.0391 41.2107 30.4142 41.5858C30.7893 41.9609 31 42.4696 31 43V49C31 49.5304 30.7893 50.0391 30.4142 50.4142C30.0391 50.7893 29.5304 51 29 51H19C18.4696 51 17.9609 50.7893 17.5858 50.4142C17.2107 50.0391 17 49.5304 17 49V43Z" stroke="white" stroke-width="2" stroke-linecap="round" stroke-linejoin="round"/>
<path d="M20 41V37C20 35.9391 20.4214 34.9217 21.1716 34.1716C21.9217 33.4214 22.9391 33 24 33C25.0609 33 26.0783 33.4214 26.8284 34.1716C27.5786 34.9217 28 35.9391 28 37V41M23 46C23 46.2652 23.1054 46.5196 23.2929 46.7071C23.4804 46.8946 23.7348 47 24 47C24.2652 47 24.5196 46.8946 24.7071 46.7071C24.8946 46.5196 25 46.2652 25 46C25 45.7348 24.8946 45.4804 24.7071 45.2929C24.5196 45.1054 24.2652 45 24 45C23.7348 45 23.4804 45.1054 23.2929 45.2929C23.1054 45.4804 23 45.7348 23 46Z" stroke="white" stroke-width="2" stroke-linecap="round" stroke-linejoin="round"/>
<path d="M10 44C10 42.9391 10.4214 41.9217 11.1716 41.1716C11.9217 40.4214 12.9391 40 14 40H34C35.0609 40 36.0783 40.4214 36.8284 41.1716C37.5786 41.9217 38 42.9391 38 44V56C38 57.0609 37.5786 58.0783 36.8284 58.8284C36.0783 59.5786 35.0609 60 34 60H14C12.9391 60 11.9217 59.5786 11.1716 58.8284C10.4214 58.0783 10 57.0609 10 56V44Z" stroke="white" stroke-width="4" stroke-linecap="round" stroke-linejoin="round"/>
<path d="M16 40V32C16 29.8783 16.8429 27.8434 18.3431 26.3431C19.8434 24.8429 21.8783 24 24 24C26.1217 24 28.1566 24.8429 29.6569 26.3431C31.1571 27.8434 32 29.8783 32 32V40M22 50C22 50.5304 22.2107 51.0391 22.5858 51.4142C22.9609 51.7893 23.4696 52 24 52C24.5304 52 25.0391 51.7893 25.4142 51.4142C25.7893 51.0391 26 50.5304 26 50C26 49.4696 25.7893 48.9609 25.4142 48.5858C25.0391 48.2107 24.5304 48 24 48C23.4696 48 22.9609 48.2107 22.5858 48.5858C22.2107 48.9609 22 49.4696 22 50Z" stroke="white" stroke-width="4" stroke-linecap="round" stroke-linejoin="round"/>
</svg>
